<?xml version="1.0" standalone="no"?>
<!DOCTYPE svg PUBLIC "-//W3C//DTD SVG 20010904//EN"
 "http://www.w3.org/TR/2001/REC-SVG-20010904/DTD/svg10.dtd">
<svg version="1.0" xmlns="http://www.w3.org/2000/svg"
 width="200.000000pt" height="200.000000pt" viewBox="0 0 200.000000 200.000000"
 preserveAspectRatio="xMidYMid meet">
<metadata>
Created by potrace 1.14, written by Peter Selinger 2001-2017
</metadata>
<g transform="translate(0.000000,200.000000) scale(0.100000,-0.100000)"
fill="#000000" stroke="none">
<path d="M593 1345 c-20 -22 -18 -691 1 -711 9 -9 35 -14 70 -14 59 0 61 2 59
58 -1 6 3 12 8 12 13 0 12 347 -1 355 -6 4 -10 68 -10 161 l0 154 -57 0 c-37
-1 -63 -6 -70 -15z m134 -367 c-2 -13 -4 -3 -4 22 0 25 2 35 4 23 2 -13 2 -33
0 -45z"/>
<path d="M820 1200 c0 -100 -4 -160 -10 -160 -6 0 -10 -47 -10 -120 0 -73 4
-120 10 -120 6 0 10 -18 10 -40 0 -22 5 -40 10 -40 6 0 10 -7 10 -16 0 -20 24
-44 44 -44 9 0 16 -4 16 -10 0 -5 14 -10 30 -10 17 0 30 -4 30 -10 0 -6 45
-10 116 -10 74 0 113 4 109 10 -3 6 -1 10 4 10 6 0 11 21 11 50 l0 50 -106 0
c-78 0 -109 4 -120 14 -11 11 -14 47 -14 160 l0 146 76 0 c90 0 104 10 104 74
0 42 -2 46 -24 46 -13 0 -27 -6 -29 -12 -4 -10 -6 -10 -6 0 -1 8 -20 12 -61
12 l-60 0 0 76 c0 93 -9 104 -84 104 l-56 0 0 -160z"/>
<path d="M120 1130 l0 -50 100 0 c60 0 100 -4 100 -10 0 -5 7 -10 16 -10 26 0
44 -26 44 -64 l0 -36 -70 0 c-40 0 -70 -4 -70 -10 0 -5 -13 -10 -30 -10 -16 0
-30 -4 -30 -10 0 -5 -7 -10 -15 -10 -20 0 -65 -45 -65 -65 0 -8 -4 -15 -10
-15 -6 0 -10 -27 -10 -60 0 -33 4 -60 10 -60 6 0 10 -7 10 -15 0 -23 39 -58
81 -72 52 -19 286 -17 305 1 11 12 14 57 14 230 0 137 -4 216 -10 216 -5 0
-10 7 -10 16 0 20 -24 44 -44 44 -9 0 -16 5 -16 10 0 6 -9 10 -20 10 -11 0
-20 5 -20 10 0 6 -50 10 -130 10 l-130 0 0 -50z m260 -360 c0 -83 -1 -90 -20
-90 -11 0 -20 5 -20 10 0 6 -9 10 -20 10 -11 0 -20 5 -20 10 0 6 -7 10 -15 10
-27 0 -65 47 -65 80 0 49 17 59 93 60 l67 0 0 -90z"/>
<path d="M1293 1165 c-10 -11 -13 -79 -13 -265 0 -282 -1 -280 70 -280 71 0
70 -4 70 294 l0 266 -57 0 c-37 -1 -63 -6 -70 -15z"/>
<path d="M1620 1170 c0 -5 -7 -10 -15 -10 -20 0 -85 -65 -85 -85 0 -8 -4 -15
-10 -15 -5 0 -10 -22 -10 -50 0 -27 5 -50 10 -50 6 0 10 -7 10 -15 0 -25 46
-65 75 -65 14 0 25 -4 25 -10 0 -6 33 -10 80 -10 73 0 80 -2 80 -20 0 -11 5
-20 10 -20 6 0 10 -9 10 -20 0 -11 -4 -20 -10 -20 -5 0 -10 -7 -10 -16 0 -20
-24 -44 -44 -44 -9 0 -16 -4 -16 -10 0 -5 -9 -10 -20 -10 -11 0 -20 -4 -20
-10 0 -5 -9 -10 -20 -10 -11 0 -20 -4 -20 -10 0 -5 -7 -10 -16 -10 -15 0 -44
-23 -44 -34 0 -3 54 -6 120 -6 73 0 120 4 120 10 0 6 7 10 15 10 20 0 85 65
85 85 0 8 5 15 10 15 6 0 10 18 10 40 0 22 -4 40 -10 40 -5 0 -10 9 -10 20 0
11 -4 20 -10 20 -5 0 -10 10 -11 23 0 12 -3 16 -6 9 -3 -8 -14 -2 -33 18 -17
18 -38 30 -54 30 -14 0 -26 5 -26 10 0 6 -25 10 -56 10 -78 0 -84 9 -84 124 0
57 -4 96 -10 96 -5 0 -10 -4 -10 -10z"/>
<path d="M1880 1170 c0 -5 -13 -10 -28 -10 -16 0 -34 -8 -42 -20 -8 -12 -26
-20 -42 -20 -15 0 -28 -3 -28 -8 0 -4 -10 -12 -22 -17 -12 -6 -23 -16 -26 -22
-6 -20 175 -18 194 1 16 17 20 106 4 106 -5 0 -10 -4 -10 -10z"/>
</g>
</svg>
